<?xml version="1.0" encoding="utf-8"?>
<!-- Generator: Adobe Illustrator 25.2.0, SVG Export Plug-In . SVG Version: 6.00 Build 0)  -->
<svg version="1.1" id="Layer_1" xmlns="http://www.w3.org/2000/svg" xmlns:xlink="http://www.w3.org/1999/xlink" x="0px" y="0px"
	 viewBox="0 0 104.6 26.3" style="enable-background:new 0 0 104.6 26.3;" xml:space="preserve">
<style type="text/css">
	.st0{fill:#414141;}
</style>
<g>
	<path class="st0" d="M25.7,1.1c0.3,0.3,0.5,0.7,0.5,1.1c0,0.7-0.2,1.1-0.6,1.4c-0.4,0.3-1,0.4-1.8,0.4c-1.8-0.1-3.2-0.2-4.2-0.3
		c-1,0-2.3-0.1-4-0.1c-0.7,3.7-1.4,7.4-2,11.1c-0.2,1.4-0.5,2.9-0.7,4.7c-0.2,1.8-0.4,3.2-0.5,4.3c0,0.6-0.3,1-0.7,1.3
		c-0.4,0.3-1,0.5-1.6,0.5c-0.7,0-1.2-0.2-1.5-0.5C8.2,24.8,8,24.4,8,23.9c0-0.5,0.1-1.3,0.2-2.4c0.2-1.1,0.3-2.3,0.5-3.5
		c0.2-1.2,0.4-2.3,0.5-3.2c0.2-1.5,0.5-3,0.8-4.5c0.3-1.5,0.6-2.9,0.8-4.3C10.9,5.7,11,5.3,11,5c0.1-0.4,0.2-0.8,0.3-1.3
		c-2,0.1-3.5,0.2-4.6,0.5C5.6,4.4,4.8,4.8,4.3,5.2C3.8,5.7,3.6,6.3,3.6,7c0,0.7,0.2,1.3,0.6,2c0.1,0.1,0.1,0.3,0.1,0.5
		c0,0.4-0.2,0.7-0.7,1.1C3.2,10.9,2.7,11,2.2,11c-0.3,0-0.6-0.1-0.8-0.3c-0.4-0.3-0.7-0.8-1-1.5C0.1,8.6,0,7.9,0,7.1
		C0,5.4,0.6,4,1.7,3c1.1-1,2.8-1.8,5.1-2.3C9,0.2,12,0,15.5,0c2.2,0,4,0,5.3,0.1c1.3,0.1,2.5,0.2,3.4,0.4
		C24.9,0.6,25.3,0.8,25.7,1.1z"/>
	<path class="st0" d="M16.7,24.4c-0.3-0.8-0.5-2.1-0.5-3.9c0-2.6,0.4-5.1,1.1-7.4c0.2-0.6,0.5-1,0.9-1.3c0.4-0.3,1-0.4,1.7-0.4
		c0.4,0,0.7,0.1,0.8,0.2c0.2,0.1,0.2,0.3,0.2,0.6c0,0.3-0.2,1-0.5,2.2c-0.2,0.8-0.4,1.5-0.5,2.1c-0.1,0.6-0.2,1.3-0.3,2.2
		c0.7-1.7,1.4-3.1,2.2-4.2c0.8-1.1,1.6-1.9,2.4-2.3c0.8-0.5,1.5-0.7,2.2-0.7c1.3,0,2,0.7,2,2c0,0.3-0.1,0.9-0.3,1.9
		c-0.2,0.8-0.2,1.3-0.2,1.5c0,0.7,0.3,1.1,0.8,1.1c0.6,0,1.3-0.4,2.2-1.3c0.3-0.3,0.5-0.4,0.8-0.4c0.3,0,0.5,0.1,0.6,0.3
		c0.2,0.2,0.2,0.5,0.2,0.9c0,0.7-0.2,1.3-0.6,1.7c-0.6,0.6-1.2,1.1-2,1.5c-0.8,0.4-1.6,0.6-2.4,0.6c-1.1,0-1.9-0.3-2.4-0.8
		c-0.6-0.5-0.8-1.3-0.8-2.2c0-0.3,0-0.6,0.1-0.9c0-0.4,0.1-0.7,0.1-0.8c0-0.3-0.1-0.5-0.3-0.5c-0.3,0-0.7,0.3-1.2,1
		c-0.5,0.7-1,1.6-1.5,2.7c-0.5,1.1-0.9,2.3-1.2,3.5c-0.2,0.9-0.5,1.6-0.8,1.9c-0.3,0.3-0.7,0.5-1.4,0.5C17.5,25.6,17,25.2,16.7,24.4
		z"/>
	<path class="st0" d="M45.8,16.6c0.1,0.3,0.2,0.6,0.2,1c0,1-0.3,1.5-0.9,1.7c-1.2,0.4-2.5,0.7-4,0.7c-0.4,1.7-1.1,3-2.3,4
		c-1.1,1-2.4,1.5-3.8,1.5c-1.2,0-2.2-0.3-3.1-0.9c-0.9-0.6-1.5-1.4-1.9-2.3c-0.4-1-0.7-2-0.7-3.1c0-1.5,0.3-2.9,0.9-4.1
		c0.6-1.2,1.4-2.1,2.4-2.8c1-0.7,2.2-1,3.4-1c1.5,0,2.8,0.5,3.7,1.6c0.9,1.1,1.5,2.4,1.6,3.9c0.9-0.1,2.1-0.3,3.4-0.6
		c0.2,0,0.3-0.1,0.4-0.1C45.5,16.3,45.7,16.4,45.8,16.6z M37,21.7c0.5-0.5,0.8-1.3,0.9-2.3c-0.6-0.4-1.1-1-1.4-1.7
		c-0.3-0.7-0.5-1.4-0.5-2.2c0-0.3,0-0.6,0.1-1H36c-0.8,0-1.5,0.4-2,1.2c-0.5,0.8-0.8,1.9-0.8,3.3c0,1.1,0.2,1.9,0.6,2.5
		c0.4,0.6,0.9,0.9,1.5,0.9C36,22.5,36.5,22.2,37,21.7z"/>
	<path class="st0" d="M44,24.4c-0.3-0.8-0.5-2.1-0.5-3.9c0-2.6,0.4-5.1,1.1-7.4c0.2-0.6,0.5-1,0.9-1.3c0.4-0.3,1-0.4,1.7-0.4
		c0.4,0,0.7,0.1,0.8,0.2c0.2,0.1,0.2,0.3,0.2,0.6c0,0.3-0.2,1-0.5,2.2c-0.2,0.8-0.4,1.5-0.5,2.1c-0.1,0.6-0.2,1.3-0.3,2.2
		c0.7-1.7,1.4-3.1,2.2-4.2c0.8-1.1,1.6-1.9,2.4-2.3c0.8-0.5,1.5-0.7,2.2-0.7c1.3,0,2,0.7,2,2c0,0.8-0.2,2.2-0.7,4.2
		c-0.4,1.7-0.6,2.9-0.6,3.5c0,0.8,0.3,1.2,0.9,1.2c0.4,0,0.9-0.2,1.4-0.7c0.6-0.5,1.3-1.3,2.2-2.4c0.2-0.3,0.5-0.4,0.8-0.4
		c0.3,0,0.5,0.1,0.6,0.4c0.2,0.2,0.2,0.6,0.2,1c0,0.8-0.2,1.4-0.6,1.9c-0.9,1.1-1.8,1.9-2.8,2.6c-1,0.7-2.1,1-3.4,1
		c-1,0-1.8-0.3-2.3-0.9c-0.5-0.6-0.8-1.4-0.8-2.6c0-0.6,0.1-1.6,0.4-3c0.3-1.3,0.4-2.1,0.4-2.6c0-0.3-0.1-0.5-0.3-0.5
		c-0.3,0-0.6,0.3-1.1,1c-0.5,0.7-1,1.6-1.4,2.7c-0.5,1.1-0.9,2.3-1.2,3.5c-0.2,0.9-0.5,1.6-0.8,1.9c-0.3,0.3-0.7,0.5-1.4,0.5
		C44.8,25.6,44.3,25.2,44,24.4z"/>
	<path class="st0" d="M59.5,24c-1.1-1.1-1.6-2.6-1.6-4.4c0-1.6,0.3-3,1-4.3c0.6-1.2,1.5-2.2,2.5-2.8c1-0.7,2.1-1,3.2-1
		c1.1,0,2,0.3,2.6,1c0.6,0.7,0.9,1.5,0.9,2.5c0,0.8-0.2,1.6-0.6,2.1C67.1,17.7,66.6,18,66,18c-0.4,0-0.7-0.1-0.9-0.3
		c-0.2-0.2-0.3-0.4-0.3-0.8c0-0.1,0-0.3,0.1-0.5c0-0.2,0.1-0.3,0.1-0.4c0.1-0.3,0.2-0.6,0.2-0.8c0-0.3-0.1-0.5-0.2-0.6
		c-0.1-0.1-0.3-0.2-0.6-0.2c-0.5,0-0.9,0.2-1.3,0.6c-0.4,0.4-0.7,1-1,1.7c-0.2,0.7-0.4,1.5-0.4,2.3c0,2.3,1,3.5,3,3.5
		c0.8,0,1.7-0.3,2.7-0.8c1-0.6,1.9-1.4,2.8-2.5c0.2-0.3,0.5-0.4,0.8-0.4c0.3,0,0.5,0.1,0.6,0.4c0.2,0.2,0.2,0.6,0.2,1
		c0,0.8-0.2,1.4-0.6,1.9c-0.9,1.2-2.1,2.1-3.4,2.7c-1.3,0.6-2.6,0.9-3.8,0.9C62.1,25.6,60.6,25.1,59.5,24z"/>
	<path class="st0" d="M71.5,24.8c-0.8-0.6-1.5-1.4-1.9-2.3c-0.4-1-0.6-2-0.6-3.1c0-1.5,0.3-2.9,0.9-4.1c0.6-1.2,1.3-2.1,2.3-2.8
		c1-0.7,2.1-1,3.3-1c1.2,0,2.2,0.3,3,0.9c0.8,0.6,1.5,1.4,1.9,2.3c0.4,1,0.6,2,0.6,3.1c0,1.5-0.3,2.9-0.9,4.1
		c-0.6,1.2-1.4,2.1-2.4,2.8c-1,0.7-2.1,1-3.3,1C73.3,25.6,72.3,25.3,71.5,24.8z M76.6,21.3c0.5-0.7,0.7-1.8,0.7-3.3
		c0-1.1-0.2-1.9-0.6-2.5c-0.4-0.6-0.9-0.8-1.4-0.8c-0.7,0-1.3,0.4-1.8,1.1c-0.5,0.7-0.7,1.8-0.7,3.3c0,1.1,0.2,2,0.6,2.5
		c0.4,0.5,0.9,0.8,1.5,0.8C75.5,22.4,76.1,22,76.6,21.3z"/>
	<path class="st0" d="M82.3,25.6c-0.6-0.5-0.8-1-0.8-1.6c0-0.5,0.2-1,0.6-1.4c0.4-0.4,0.9-0.6,1.7-0.6c0.3,0,0.6,0,0.9,0.1
		c0.4,0.1,0.6,0.1,0.8,0.1c0-0.5-0.1-1-0.3-1.5c-0.2-0.5-0.5-0.9-0.8-1.3c-0.3-0.4-0.6-0.8-0.9-1.1c-0.6,1.2-1.2,2.2-1.9,2.9
		c-0.6,0.8-1.3,1.5-2,2.2c-0.4,0.4-0.7,0.5-1.1,0.5c-0.3,0-0.6-0.1-0.8-0.3c-0.2-0.2-0.3-0.5-0.3-0.9c0-0.4,0.1-0.8,0.4-1.1l0.4-0.5
		c1.1-1.4,1.9-2.5,2.5-3.4c0.3-0.6,0.7-1.4,1.2-2.3c0.5-1,0.9-2,1.4-3c0.4-0.9,1.2-1.3,2.4-1.3c0.6,0,1,0.1,1.2,0.2
		c0.2,0.1,0.3,0.3,0.3,0.5c0,0.1,0,0.3-0.1,0.6c-0.1,0.3-0.2,0.5-0.3,0.8C86.2,13.8,86,14.5,86,15c0,0.3,0.1,0.6,0.3,1
		c0.2,0.4,0.5,0.8,1,1.4c0.6,0.8,1.1,1.6,1.5,2.2c0.3,0.6,0.5,1.2,0.5,1.9c0,0.2,0,0.5-0.1,0.8c1-0.4,2.1-1.4,3.5-3
		c0.2-0.3,0.5-0.4,0.8-0.4c0.3,0,0.5,0.1,0.6,0.4c0.2,0.2,0.2,0.6,0.2,1c0,0.8-0.2,1.4-0.6,1.9c-1,1.2-2,2.1-2.9,2.5
		c-0.9,0.5-2,0.7-3.4,0.7c-0.8,0.7-1.8,1-2.9,1C83.6,26.3,82.8,26.1,82.3,25.6z"/>
	<path class="st0" d="M93.7,24.3c-0.7-0.9-1.1-2.1-1.1-3.6c0-1.6,0.4-3.1,1.1-4.6c0.7-1.4,1.7-2.6,3-3.5c1.2-0.9,2.5-1.3,3.9-1.3
		c0.4,0,0.7,0.1,0.9,0.3c0.2,0.2,0.3,0.5,0.4,0.9c0.4-0.1,0.8-0.1,1.3-0.1c0.5,0,0.9,0.1,1.1,0.4c0.3,0.2,0.4,0.6,0.4,1
		c0,0.5-0.1,1.3-0.3,2.4c-0.2,1.2-0.4,2.4-0.5,3.5s-0.2,2.4-0.2,3.7c0,0.8-0.2,1.3-0.5,1.6c-0.3,0.3-0.8,0.5-1.5,0.5
		c-0.7,0-1.2-0.2-1.5-0.5c-0.3-0.3-0.5-0.9-0.5-1.6l0-0.5c-0.6,1.7-1.7,2.6-3.2,2.6C95.3,25.6,94.4,25.2,93.7,24.3z M99.1,21.4
		c0.5-0.8,0.9-2.2,1.2-4.2l0.6-3c-0.8,0-1.6,0.3-2.3,0.9c-0.7,0.6-1.3,1.4-1.7,2.4c-0.4,1-0.6,2.1-0.6,3.2c0,0.6,0.1,1.1,0.3,1.4
		c0.2,0.3,0.5,0.5,0.9,0.5C98.2,22.6,98.7,22.2,99.1,21.4z"/>
	<g>
		<path class="st0" d="M18.4,9.4l0.8-3.8h1l-0.6,3h1.2l-0.2,0.8H18.4z"/>
		<path class="st0" d="M23.3,8.7h-1.2l-0.3,0.7h-1l1.9-3.8H24l0.3,3.8h-1L23.3,8.7z M22.5,7.9h0.8l0-1.1l0-0.2c0-0.1,0-0.2,0-0.3
			c0,0.1-0.1,0.3-0.2,0.4L22.5,7.9z"/>
	</g>
</g>
</svg>
