<?xml version="1.0" encoding="utf-8"?>
<!-- Generator: Adobe Illustrator 25.2.0, SVG Export Plug-In . SVG Version: 6.00 Build 0)  -->
<svg version="1.1" id="Layer_1" xmlns="http://www.w3.org/2000/svg" xmlns:xlink="http://www.w3.org/1999/xlink" x="0px" y="0px"
	 viewBox="0 0 212 54" style="enable-background:new 0 0 212 54;" xml:space="preserve">
<style type="text/css">
	.st0{fill:#414141;}
	.st1{fill:#F5EFED;}
</style>
<path id="Path" class="st0" d="M45.2,43.7c-12.6,12.7-23.1,12.7-35.8,0s-12.6-23.2,0-35.9s19.6-7.7,35.8,0
	C62.4,16.1,57.9,31,45.2,43.7z"/>
<polygon id="Path_1_" class="st1" points="25.8,26.3 25.8,14.7 14.1,26.3 14.1,38 37.4,38 37.4,26.3 37.4,14.7 "/>
<polygon id="Path_2_" class="st0" points="79.8,14.7 86.6,14.7 92.2,23.7 97.8,14.7 104.7,14.7 104.7,38 98.2,38 98.2,24.6 
	92.2,33.7 92.1,33.7 86.2,24.7 86.2,38 79.8,38 "/>
<path id="Shape" class="st0" d="M117.9,38.8c-1.4,0-2.7-0.2-4-0.7c-1.2-0.5-2.2-1.2-3.1-2c-1.8-1.7-2.8-4.2-2.8-6.7v-0.1
	c0-1.3,0.2-2.5,0.7-3.7c0.5-1.1,1.2-2.2,2.1-3c0.9-0.9,2-1.6,3.2-2.1c1.3-0.5,2.6-0.8,4-0.8c1.4,0,2.7,0.2,4,0.8
	c1.2,0.5,2.2,1.2,3.2,2c1.8,1.7,2.8,4.2,2.8,6.7v0.1c0,1.3-0.3,2.5-0.8,3.7c-0.5,1.1-1.2,2.2-2.1,3c-0.9,0.9-2,1.6-3.1,2.1
	C120.7,38.5,119.3,38.8,117.9,38.8L117.9,38.8z M118,33.3c0.5,0,1.1-0.1,1.6-0.3c0.5-0.2,0.9-0.5,1.2-0.9c0.3-0.4,0.6-0.8,0.7-1.3
	c0.2-0.5,0.3-1,0.3-1.5v-0.1c0-0.5-0.1-1.1-0.3-1.6c-0.2-0.5-0.4-0.9-0.8-1.3c-0.3-0.4-0.8-0.7-1.2-0.9c-0.5-0.2-1-0.3-1.5-0.3
	c-0.5,0-1.1,0.1-1.6,0.3c-0.5,0.2-0.9,0.5-1.2,0.9c-0.3,0.4-0.6,0.8-0.7,1.3c-0.2,0.5-0.3,1-0.3,1.5v0.1c0,0.5,0.1,1.1,0.3,1.6
	c0.2,0.5,0.5,0.9,0.8,1.3c0.3,0.4,0.8,0.7,1.2,0.9C117,33.2,117.5,33.3,118,33.3L118,33.3z"/>
<path id="Path_3_" class="st0" d="M130.5,20.1h6.2v2.6c0.3-0.4,0.6-0.8,0.9-1.1c0.3-0.4,0.7-0.7,1.2-1c0.4-0.3,0.9-0.5,1.4-0.7
	c0.6-0.2,1.1-0.3,1.7-0.3c1.7-0.1,3.3,0.6,4.4,1.8c1.1,1.4,1.7,3.2,1.6,5.1v12.2h-6.2V28.7c0.1-0.8-0.2-1.7-0.7-2.3
	c-0.4-0.5-1.1-0.8-1.8-0.8c-0.7,0-1.4,0.3-1.8,0.8c-0.5,0.6-0.8,1.5-0.7,2.3v10.1h-6.2L130.5,20.1z"/>
<path id="Path_4_" class="st0" d="M159.8,38.8c-2.5,0-4.9-1-6.7-2.7c-1.8-1.8-2.8-4.2-2.8-6.7v-0.1c0-3.8,2.3-7.3,5.8-8.8
	c1.2-0.5,2.6-0.8,3.9-0.8c1.6-0.1,3.2,0.3,4.7,1.1c1.2,0.7,2.3,1.7,3,2.9l-4.3,3.3c-0.4-0.6-0.9-1-1.4-1.4c-0.6-0.4-1.3-0.5-2-0.5
	c-0.5,0-1,0.1-1.4,0.3c-0.4,0.2-0.8,0.5-1.1,0.9c-0.3,0.4-0.6,0.8-0.7,1.3c-0.2,0.5-0.3,1-0.3,1.6v0.1c0,0.6,0.1,1.1,0.3,1.6
	c0.2,0.5,0.4,0.9,0.7,1.3c0.3,0.4,0.7,0.7,1.1,0.9c0.5,0.2,1,0.3,1.5,0.3c0.7,0,1.3-0.2,1.9-0.5c0.6-0.4,1.1-0.8,1.5-1.4l4.2,3.1
	c-0.8,1.2-1.9,2.2-3.1,3C163.2,38.4,161.5,38.8,159.8,38.8L159.8,38.8z"/>
<path id="Path_5_" class="st0" d="M171.1,13.9h6.2v9c0.6-0.8,1.3-1.5,2.1-2c0.9-0.6,2-0.9,3.1-0.9c1.7-0.1,3.3,0.6,4.4,1.8
	c1.1,1.4,1.7,3.2,1.6,5v12.1h-6.2v-10c0.1-0.8-0.2-1.7-0.7-2.3c-0.4-0.5-1.1-0.8-1.8-0.8c-0.7,0-1.4,0.3-1.8,0.8
	c-0.5,0.6-0.8,1.5-0.7,2.3v10h-6.2L171.1,13.9z"/>
<path id="Shape_1_" class="st0" d="M201,38.8c-1.4,0-2.7-0.2-4-0.7c-1.2-0.5-2.2-1.2-3.1-2c-1.8-1.7-2.8-4.2-2.8-6.7v-0.1
	c0-1.3,0.2-2.5,0.7-3.7c0.5-1.1,1.2-2.2,2.1-3c0.9-0.9,2-1.6,3.2-2.1c1.3-0.5,2.6-0.8,4-0.8c1.4,0,2.7,0.2,4,0.8
	c1.2,0.5,2.2,1.2,3.2,2c1.8,1.7,2.8,4.2,2.8,6.7v0.1c0,1.3-0.2,2.5-0.7,3.7c-0.5,1.1-1.2,2.2-2.1,3c-0.9,0.9-2,1.6-3.2,2.1
	C203.7,38.5,202.4,38.8,201,38.8z M201.1,33.3c0.5,0,1.1-0.1,1.6-0.3c0.5-0.2,0.9-0.5,1.2-0.9c0.3-0.4,0.6-0.8,0.8-1.3
	c0.2-0.5,0.3-1,0.3-1.5v-0.1c0-0.5-0.1-1.1-0.3-1.6c-0.2-0.5-0.4-0.9-0.8-1.3c-0.3-0.4-0.8-0.7-1.2-0.9c-0.5-0.2-1-0.3-1.5-0.3
	c-0.5,0-1.1,0.1-1.6,0.3c-0.5,0.2-0.9,0.5-1.2,0.9c-0.3,0.4-0.6,0.8-0.7,1.3c-0.2,0.5-0.3,1-0.3,1.5v0.1c0,0.5,0.1,1.1,0.3,1.6
	c0.2,0.5,0.4,0.9,0.8,1.3c0.3,0.4,0.8,0.7,1.2,0.9C200,33.2,200.6,33.3,201.1,33.3L201.1,33.3z"/>
</svg>
